<svg width="55" height="40" viewBox="0 0 55 40" version="1.1" xmlns="http://www.w3.org/2000/svg" xmlns:xlink="http://www.w3.org/1999/xlink">
<title>counter</title>
<desc>Created using Figma</desc>
<g id="Canvas" transform="translate(-290 15)">
<clipPath id="clip-0" clip-rule="evenodd">
<path d="M 290 -15L 345 -15L 345 25L 290 25L 290 -15Z" fill="#FFFFFF"/>
</clipPath>
<g id="counter" clip-path="url(#clip-0)">
<g id="Vector">
<use xlink:href="#path0_stroke" transform="translate(312 -1)" fill="#FFFFFF"/>
</g>
<g id="Vector 2">
<use xlink:href="#path1_stroke" transform="translate(301.5 -12.5)" fill="#FFFFFF"/>
</g>
</g>
</g>
<defs>
<path id="path0_stroke" d="M 4.5 13L 3.55501 13.3271L 4.07755 14.8367L 5.20711 13.7071L 4.5 13ZM 0 0L 0.358979 -0.933346L -1.64858 -1.70548L -0.944986 0.327111L 0 0ZM 13 5L 13.7071 5.70711L 14.7952 4.61904L 13.359 4.06665L 13 5ZM 10 8L 9.29289 7.29289L 8.54759 8.03819L 9.33104 8.74329L 10 8ZM 15 12.5L 15.7071 13.2071L 16.4524 12.4618L 15.669 11.7567L 15 12.5ZM 12.5 15L 11.7929 15.7071L 12.5 16.4142L 13.2071 15.7071L 12.5 15ZM 7.5 10L 8.20711 9.29289L 7.5 8.58579L 6.79289 9.29289L 7.5 10ZM 5.44499 12.6729L 0.944986 -0.327111L -0.944986 0.327111L 3.55501 13.3271L 5.44499 12.6729ZM -0.358979 0.933346L 12.641 5.93335L 13.359 4.06665L 0.358979 -0.933346L -0.358979 0.933346ZM 12.2929 4.29289L 9.29289 7.29289L 10.7071 8.70711L 13.7071 5.70711L 12.2929 4.29289ZM 9.33104 8.74329L 14.331 13.2433L 15.669 11.7567L 10.669 7.25671L 9.33104 8.74329ZM 14.2929 11.7929L 11.7929 14.2929L 13.2071 15.7071L 15.7071 13.2071L 14.2929 11.7929ZM 13.2071 14.2929L 8.20711 9.29289L 6.79289 10.7071L 11.7929 15.7071L 13.2071 14.2929ZM 6.79289 9.29289L 3.79289 12.2929L 5.20711 13.7071L 8.20711 10.7071L 6.79289 9.29289Z"/>
<path id="path1_stroke" d="M 10.8 7L 10.8 0L 9.2 0L 9.2 7L 10.8 7ZM 13.3831 8.70232L 18.8831 5.70232L 18.1169 4.29768L 12.6169 7.29768L 13.3831 8.70232ZM 6.98 7.36L 0.98 2.86L 0.02 4.14L 6.02 8.64L 6.98 7.36ZM 5.74702 10.2411L -0.252982 12.2411L 0.252982 13.7589L 6.25298 11.7589L 5.74702 10.2411ZM 7.23538 13.2647L 5.23538 19.7647L 6.76462 20.2353L 8.76462 13.7353L 7.23538 13.2647Z"/>
</defs>
</svg>
