<svg width="55" height="40" viewBox="0 0 55 40" version="1.1" xmlns="http://www.w3.org/2000/svg" xmlns:xlink="http://www.w3.org/1999/xlink">
<title>offline</title>
<desc>Created using Figma</desc>
<g id="Canvas" transform="translate(67 73)">
 clip-path="url(#clip-0)"<g id="offline">
<g id="Ellipse 5">
<mask id="mask0_outline_ins">
<use xlink:href="#path0_fill" fill="white" transform="translate(-52 -64)"/>
</mask>
<g mask="url(#mask0_outline_ins)">
<use xlink:href="#path1_stroke_2x" transform="translate(-52 -64)" fill="#FFFFFF"/>
</g>
</g>
<g id="Vector 15">
<use xlink:href="#path2_fill" transform="translate(-48.8571 -57.7143)" fill="#FFFFFF"/>
<use xlink:href="#path3_stroke" transform="translate(-48.8571 -57.7143)" fill="#FFFFFF"/>
</g>
</g>
</g>
<defs>
<path id="path0_fill" d="M 22 11C 22 17.0751 17.0751 22 11 22C 4.92487 22 0 17.0751 0 11C 0 4.92487 4.92487 0 11 0C 17.0751 0 22 4.92487 22 11Z"/>
<path id="path1_stroke_2x" d="M 20.5 11C 20.5 16.2467 16.2467 20.5 11 20.5L 11 23.5C 17.9036 23.5 23.5 17.9036 23.5 11L 20.5 11ZM 11 20.5C 5.75329 20.5 1.5 16.2467 1.5 11L -1.5 11C -1.5 17.9036 4.09644 23.5 11 23.5L 11 20.5ZM 1.5 11C 1.5 5.75329 5.75329 1.5 11 1.5L 11 -1.5C 4.09644 -1.5 -1.5 4.09644 -1.5 11L 1.5 11ZM 11 1.5C 16.2467 1.5 20.5 5.75329 20.5 11L 23.5 11C 23.5 4.09644 17.9036 -1.5 11 -1.5L 11 1.5Z"/>
<path id="path2_fill" d="M 5.5 4.71429L 0 9.42857L 5.5 0.785714L 10.2143 4.71429L 15.7143 0L 10.2143 8.64286L 5.5 4.71429Z"/>
<path id="path3_stroke" d="M 0 9.42857L -0.421831 9.16013L 0.325396 9.8082L 0 9.42857ZM 5.5 4.71429L 5.82009 4.33018L 5.49545 4.05964L 5.1746 4.33466L 5.5 4.71429ZM 10.2143 8.64286L 9.89419 9.02697L 10.3309 9.3909L 10.6361 8.9113L 10.2143 8.64286ZM 15.7143 0L 16.1361 0.268438L 15.3889 -0.379628L 15.7143 0ZM 10.2143 4.71429L 9.89419 5.0984L 10.2188 5.36893L 10.5397 5.09391L 10.2143 4.71429ZM 5.5 0.785714L 5.82009 0.401604L 5.38337 0.0376709L 5.07817 0.517277L 5.5 0.785714ZM 0.325396 9.8082L 5.8254 5.09391L 5.1746 4.33466L -0.325396 9.04894L 0.325396 9.8082ZM 5.17991 5.0984L 9.89419 9.02697L 10.5344 8.25875L 5.82009 4.33018L 5.17991 5.0984ZM 10.6361 8.9113L 16.1361 0.268438L 15.2925 -0.268438L 9.79245 8.37442L 10.6361 8.9113ZM 15.3889 -0.379628L 9.88889 4.33466L 10.5397 5.09391L 16.0397 0.379628L 15.3889 -0.379628ZM 10.5344 4.33018L 5.82009 0.401604L 5.17991 1.16982L 9.89419 5.0984L 10.5344 4.33018ZM 0.421831 9.69701L 5.92183 1.05415L 5.07817 0.517277L -0.421831 9.16013L 0.421831 9.69701Z"/>
</defs>
</svg>
