<svg width="60" height="60" viewBox="0 0 60 60" version="1.1" xmlns="http://www.w3.org/2000/svg" xmlns:xlink="http://www.w3.org/1999/xlink">
<title>offline-counter</title>
<desc>Created using Figma</desc>
<g id="Canvas" transform="translate(-290 104)">
<clipPath id="clip-0" clip-rule="evenodd">
<path d="M 290 -104L 350 -104L 350 -44L 290 -44L 290 -104Z" fill="#FFFFFF"/>
</clipPath>
<g id="offline-counter" clip-path="url(#clip-0)">
<g id="Ellipse 5">
<use xlink:href="#path0_stroke" transform="translate(300 -94)" fill="#58656E"/>
</g>
<g id="Vector 15">
<use xlink:href="#path1_fill" transform="translate(305 -85)" fill="#58656E"/>
<use xlink:href="#path2_stroke" transform="translate(305 -85)" fill="#58656E"/>
</g>
</g>
</g>
<defs>
<path id="path0_stroke" d="M 38.5 20C 38.5 30.2173 30.2173 38.5 20 38.5L 20 41.5C 31.8741 41.5 41.5 31.8741 41.5 20L 38.5 20ZM 20 38.5C 9.78273 38.5 1.5 30.2173 1.5 20L -1.5 20C -1.5 31.8741 8.12588 41.5 20 41.5L 20 38.5ZM 1.5 20C 1.5 9.78273 9.78273 1.5 20 1.5L 20 -1.5C 8.12588 -1.5 -1.5 8.12588 -1.5 20L 1.5 20ZM 20 1.5C 30.2173 1.5 38.5 9.78273 38.5 20L 41.5 20C 41.5 8.12588 31.8741 -1.5 20 -1.5L 20 1.5Z"/>
<path id="path1_fill" d="M 10.7143 11L 0 22L 10.7143 3.85714L 19.2857 11L 30 0L 19.2857 18.1429L 10.7143 11Z"/>
<path id="path2_stroke" d="M 0 22L -0.861062 21.4915L 0.71635 22.6977L 0 22ZM 10.7143 11L 11.3544 10.2318L 10.6436 9.63938L 9.99791 10.3023L 10.7143 11ZM 19.2857 18.1429L 18.6455 18.9111L 19.5488 19.6638L 20.1468 18.6514L 19.2857 18.1429ZM 30 0L 30.8611 0.508502L 29.2837 -0.697743L 30 0ZM 19.2857 11L 18.6455 11.7682L 19.3564 12.3606L 20.002 11.6977L 19.2857 11ZM 10.7143 3.85714L 11.3544 3.08892L 10.4511 2.33615L 9.8532 3.34864L 10.7143 3.85714ZM 0.71635 22.6977L 11.4306 11.6977L 9.99791 10.3023L -0.71635 21.3023L 0.71635 22.6977ZM 10.0741 11.7682L 18.6455 18.9111L 19.9259 17.3746L 11.3544 10.2318L 10.0741 11.7682ZM 20.1468 18.6514L 30.8611 0.508502L 29.1389 -0.508502L 18.4246 17.6344L 20.1468 18.6514ZM 29.2837 -0.697743L 18.5693 10.3023L 20.002 11.6977L 30.7163 0.697743L 29.2837 -0.697743ZM 19.9259 10.2318L 11.3544 3.08892L 10.0741 4.62536L 18.6455 11.7682L 19.9259 10.2318ZM 0.861062 22.5085L 11.5753 4.36564L 9.8532 3.34864L -0.861062 21.4915L 0.861062 22.5085Z"/>
</defs>
</svg>
