<svg width="55" height="40" viewBox="0 0 55 40" version="1.1" xmlns="http://www.w3.org/2000/svg" xmlns:xlink="http://www.w3.org/1999/xlink">
<title>slide</title>
<desc>Created using Figma</desc>
<g id="Canvas" transform="translate(-204 20)">
 clip-path="url(#clip-0)"<g id="slide">
<g id="Vector 18">
<use xlink:href="#path0_stroke" transform="translate(232 -10)" fill="#FFFFFF"/>
</g>
<g id="Vector 18">
<use xlink:href="#path0_stroke" transform="matrix(-1 0 0 1 232 -10)" fill="#FFFFFF"/>
</g>
</g>
</g>
<defs>
<path id="path0_stroke" d="M 0 19.0064L -0.875 19.0064L -0.875 19.8814L 0 19.8814L 0 19.0064ZM 12 19.0064L 12 19.8814L 12.875 19.8814L 12.875 19.0064L 12 19.0064ZM 12 4.0064L 12.875 4.0064L 12.875 3.1314L 12 3.1314L 12 4.0064ZM 0 3.62205L -0.817306 3.30958L -0.875 3.46049L -0.875 3.62205L 0 3.62205ZM 8 15.0064L 8.0298 15.8809L 8.875 15.8521L 8.875 15.0064L 8 15.0064ZM 8 0.00639909L 8.875 0.00639909L 8.875 -0.85025L 8.01854 -0.868404L 8 0.00639909ZM 0 19.8814L 12 19.8814L 12 18.1314L 0 18.1314L 0 19.8814ZM 12.875 19.0064L 12.875 4.0064L 11.125 4.0064L 11.125 19.0064L 12.875 19.0064ZM -0.875 3.62205L -0.875 19.0064L 0.875 19.0064L 0.875 3.62205L -0.875 3.62205ZM 0.812417 19.3314C 1.61653 17.3211 3.80021 16.025 8.0298 15.8809L 7.9702 14.1319C 3.49933 14.2843 0.383471 15.6917 -0.812417 18.6814L 0.812417 19.3314ZM 8.01854 -0.868404C 5.57543 -0.92019 3.66786 -0.671347 2.21246 0.000950321C 0.708065 0.695882 -0.244308 1.81082 -0.817306 3.30958L 0.817306 3.93452C 1.24431 2.81763 1.8978 2.07399 2.94633 1.58964C 4.04387 1.08265 5.63629 0.831493 7.98146 0.881203L 8.01854 -0.868404ZM 8.875 15.0064L 8.875 4.0064L 7.125 4.0064L 7.125 15.0064L 8.875 15.0064ZM 8.875 4.0064L 8.875 0.00639909L 7.125 0.00639909L 7.125 4.0064L 8.875 4.0064ZM 12 3.1314L 8 3.1314L 8 4.8814L 12 4.8814L 12 3.1314Z"/>
</defs>
</svg>
