<svg width="65" height="40" viewBox="0 0 65 40" version="1.1" xmlns="http://www.w3.org/2000/svg" xmlns:xlink="http://www.w3.org/1999/xlink" xmlns:figma="http://www.figma.com/figma/ns">
<title>url</title>
<desc>Created using Figma</desc>
<g id="Canvas" transform="translate(67 124)" figma:type="canvas">
<mask id="mask0_alpha" mask-type="alpha">
<path d="M -67 -124L -2 -124L -2 -84L -67 -84L -67 -124Z" fill="#FFFFFF"/>
</mask>
<g id="url" mask="url(#mask0_alpha)" figma:type="frame">
<g id="Vector 2" figma:type="vector">
<use xlink:href="#path0_stroke" transform="translate(-53 -111)" fill="#FFFFFF"/>
</g>
<g id="Vector 2" figma:type="vector">
<use xlink:href="#path1_stroke" transform="translate(-53 -111)" fill="#FFFFFF"/>
</g>
</g>
</g>
<defs>
<path id="path0_stroke" d="M 19.6051 0.335077L 19.782 1.31929L 19.6051 0.335077ZM 28.6051 0.335077L 28.6706 -0.662772L 28.6051 0.335077ZM 36.605 1.33508L 37.5516 1.01251L 36.7663 0.348158L 36.605 1.33508ZM 36.605 2.83508L 35.805 2.23508L 35.805 2.23508L 36.605 2.83508ZM 35.6051 3.83508L 35.6051 4.83508L 35.6051 3.83508ZM 30.5509 3.51036C 30.3715 2.988 29.8027 2.70993 29.2803 2.88927C 28.758 3.0686 28.4799 3.63744 28.6592 4.1598L 30.5509 3.51036ZM 29.6051 5.83508L 30.4005 6.44112L 29.6051 5.83508ZM 27.6051 6.83508L 27.3737 5.86221L 26.8979 6.12797L 27.6051 6.83508ZM 26.6051 7.83508L 25.8979 7.12797L 25.7399 8.33659L 26.6051 7.83508ZM 27.1051 9.83508L 26.1392 9.57595L 27.1051 9.83508ZM 25.6051 11.3351L 25.1268 10.4568L 24.7608 11.8711L 25.6051 11.3351ZM 26.1051 12.8351L 25.1102 12.7341L 26.1051 12.8351ZM 25.1051 14.3351L 25.5346 15.2381L 25.7574 15.093L 25.1051 14.3351ZM 22.6051 15.3351L 22.8822 16.2959L 22.6051 15.3351ZM 15.1051 15.3351L 15.2014 14.3397L 15.1051 15.3351ZM 11.6051 14.8351L 11.7752 13.8497L 10.6051 14.8351L 11.6051 14.8351ZM 10.1051 4.13508L 9.10505 4.13508L 10.5907 5.00924L 10.1051 4.13508ZM 10.1051 2.83508L 11.1051 2.83507L 10.1051 1.83508L 10.1051 2.83508ZM 6.60505 2.83508L 5.89795 2.12797L 6.60505 3.83508L 6.60505 2.83508ZM 8.10505 15.8351L 8.10505 14.8351L 7.27003 16.3853L 8.10505 15.8351ZM 7.10505 2.33508L 7.81216 3.04218L 7.10505 1.33508L 7.10505 2.33508ZM 0.605054 2.33508L 0.605054 1.33508L -0.262609 1.83792L 0.605054 2.33508ZM 1.60505 16.8351L 1.12284 17.7111L 1.60505 16.8351ZM 8.10505 16.8351L 7.62923 15.9555L 8.10505 16.8351ZM 30.1051 2.83508C 29.5528 2.83508 29.1051 3.28279 29.1051 3.83508C 29.1051 4.38736 29.5528 4.83508 30.1051 4.83508L 30.1051 2.83508ZM 11.6051 15.8351L 11.6051 16.8351L 12.6051 15.8351L 11.6051 15.8351ZM 19.782 1.31929C 23.0581 0.713018 24.9703 1.09651 28.5395 1.33293L 28.6706 -0.662772C 25.2255 -0.887149 23.0705 -1.28694 19.4281 -0.649137L 19.782 1.31929ZM 28.5395 1.33293C 30.0811 1.43377 32.0448 1.67964 33.645 1.90288C 34.4437 2.01428 35.1422 2.1189 35.6448 2.19622C 35.8953 2.23477 36.0949 2.26618 36.2331 2.28816C 36.3018 2.2991 36.3545 2.30755 36.3905 2.31335C 36.4083 2.31623 36.4216 2.31839 36.4308 2.31987C 36.4353 2.3206 36.4385 2.32113 36.4408 2.3215C 36.4419 2.32168 36.4426 2.3218 36.4432 2.32189C 36.4434 2.32193 36.4436 2.32196 36.4437 2.32198C 36.4438 2.32199 36.4438 2.32199 36.4438 2.322C 36.4438 2.322 36.4438 2.322 36.605 1.33508C 36.7663 0.348158 36.7662 0.34815 36.7661 0.348139C 36.7661 0.348131 36.766 0.348118 36.7659 0.348102C 36.7658 0.348075 36.7655 0.348029 36.7651 0.347974C 36.7645 0.347872 36.7635 0.347708 36.7623 0.347504C 36.7598 0.347108 36.7561 0.346498 36.7513 0.345717C 36.7418 0.344182 36.7275 0.34186 36.709 0.338873C 36.6723 0.332954 36.6174 0.324154 36.5472 0.312986C 36.4075 0.290758 36.2029 0.258559 35.9489 0.21948C 35.4424 0.141552 34.73 0.0348709 33.9214 -0.077937C 32.307 -0.303097 30.2708 -0.55722 28.6706 -0.662772L 28.5395 1.33293ZM 36.605 1.33508C 35.6585 1.65764 35.6584 1.65744 35.6584 1.65724C 35.6583 1.65718 35.6583 1.65699 35.6582 1.65687C 35.6583 1.65697 35.6579 1.65596 35.658 1.65618C 35.6581 1.65633 35.6575 1.65475 35.6576 1.65506C 35.6576 1.65513 35.6572 1.6537 35.6572 1.65386C 35.657 1.65306 35.6573 1.65401 35.6577 1.65544C 35.6594 1.6606 35.6605 1.6641 35.6634 1.67335C 35.6705 1.6967 35.6774 1.71995 35.6876 1.7588C 35.711 1.84707 35.7314 1.93192 35.7464 2.04687C 35.7639 2.16809 35.77 2.22164 35.7584 2.30219C 35.7519 2.36608 35.743 2.31787 35.805 2.23508L 37.405 3.43508C 37.8458 2.84745 37.772 2.09375 37.7273 1.77181C 37.6984 1.57034 37.6528 1.36806 37.6214 1.2483C 37.6041 1.18314 37.5862 1.12215 37.5756 1.08727C 37.5695 1.0674 37.5634 1.04828 37.5601 1.03811C 37.5581 1.03187 37.5559 1.02537 37.5549 1.02224C 37.5542 1.02011 37.5533 1.01765 37.553 1.01659C 37.5527 1.01578 37.5524 1.01476 37.5522 1.01435C 37.5521 1.01401 37.552 1.01355 37.5519 1.01338C 37.5518 1.01323 37.5518 1.01301 37.5517 1.01293C 37.5517 1.01272 37.5516 1.01251 36.605 1.33508ZM 35.805 2.23508C 35.7179 2.35244 35.6318 2.48559 35.5624 2.59189C 35.4928 2.6985 35.4423 2.77595 35.3852 2.84694C 35.3317 2.91643 35.3148 2.91707 35.3303 2.91215C 35.3544 2.89511 35.452 2.83508 35.6051 2.83508L 35.6051 4.83508C 36.3316 4.83508 36.7801 4.30815 36.9558 4.08518C 37.164 3.81637 37.3115 3.55631 37.405 3.43508L 35.805 2.23508ZM 29.6051 3.83508C 28.6592 4.1598 28.6592 4.15959 28.6591 4.1594C 28.6591 4.15934 28.659 4.15915 28.659 4.15903C 28.659 4.15913 28.6587 4.1582 28.6588 4.15839C 28.6588 4.1585 28.6584 4.15723 28.6584 4.15746C 28.6584 4.15736 28.6582 4.15683 28.6583 4.157C 28.6588 4.15845 28.6589 4.15878 28.6598 4.16149C 28.6623 4.16923 28.6647 4.17651 28.669 4.19064C 28.6793 4.22377 28.6904 4.2611 28.7053 4.31738C 28.7382 4.44052 28.7697 4.57321 28.7922 4.74084C 28.8173 4.91472 28.8271 5.02485 28.81 5.15858C 28.8011 5.28523 28.7885 5.22903 28.8096 5.22903L 30.4005 6.44112C 30.9083 5.77461 30.8327 4.89022 30.7729 4.46336C 30.7362 4.20865 30.679 3.95783 30.638 3.80304C 30.6159 3.72035 30.5937 3.64512 30.5799 3.60043C 30.5723 3.57564 30.5649 3.55269 30.5607 3.53994C 30.5583 3.5324 30.5558 3.5249 30.5545 3.5211C 30.5537 3.51864 30.5528 3.51593 30.5523 3.5147C 30.552 3.5138 30.5517 3.51271 30.5515 3.51227C 30.5514 3.51191 30.5512 3.51143 30.5512 3.51125C 30.5511 3.51109 30.551 3.51087 30.551 3.51079C 30.5509 3.51057 30.5509 3.51036 29.6051 3.83508ZM 28.8096 5.22903C 28.8443 5.16899 28.7383 5.30838 28.5796 5.39959C 28.418 5.4965 28.2568 5.56723 28.0611 5.64266C 27.8704 5.71699 27.7063 5.76874 27.5681 5.80914C 27.5028 5.82828 27.4556 5.84107 27.4175 5.85103C 27.4003 5.85555 27.3896 5.85825 27.3803 5.86057C 27.3765 5.86152 27.3749 5.8619 27.3729 5.86239C 27.3724 5.86253 27.372 5.86262 27.3723 5.86255C 27.3722 5.86256 27.3727 5.86244 27.3727 5.86244C 27.3726 5.86247 27.3732 5.86233 27.3731 5.86234C 27.3732 5.86232 27.3733 5.86229 27.3734 5.86228C 27.3735 5.86225 27.3737 5.86221 27.6051 6.83508C 27.8364 7.80794 27.8366 7.8079 27.8368 7.80786C 27.8368 7.80785 27.837 7.80781 27.8371 7.80778C 27.8373 7.80774 27.8377 7.80765 27.838 7.80758C 27.8383 7.80748 27.8393 7.80726 27.84 7.80707C 27.8412 7.8068 27.8436 7.80622 27.8459 7.80566C 27.8496 7.80475 27.8566 7.80304 27.864 7.80119C 27.8771 7.79793 27.8994 7.79228 27.9245 7.78571C 27.971 7.77351 28.0457 7.7532 28.1298 7.72862C 28.2903 7.68158 28.5348 7.60341 28.7831 7.50778C 29.2199 7.3387 29.9691 7.00737 30.4005 6.44112L 28.8096 5.22903ZM 26.8979 6.12797L 25.8979 7.12797L 27.3122 8.54218L 28.3122 7.54218L 26.8979 6.12797ZM 26.6051 7.83508C 25.7399 8.33659 25.7398 8.33643 25.7397 8.33627C 25.7397 8.33622 25.7396 8.33606 25.7395 8.33597C 25.7396 8.33604 25.7392 8.33529 25.7392 8.33544C 25.7393 8.33553 25.7387 8.33455 25.7388 8.33472C 25.7388 8.3346 25.7386 8.3343 25.7387 8.33452C 25.7395 8.33589 25.7398 8.3364 25.7412 8.33898C 25.7452 8.34606 25.7491 8.35312 25.7562 8.3662C 25.7726 8.3964 25.7914 8.43172 25.8175 8.4843C 25.8744 8.59826 25.9353 8.72815 25.997 8.89466C 26.0621 9.06684 26.1043 9.19901 26.1284 9.35795C 26.1564 9.51206 26.1141 9.63036 26.1392 9.57595L 28.0709 10.0942C 28.2636 9.37585 28.0269 8.61163 27.8696 8.1923C 27.7802 7.95602 27.6769 7.7317 27.6075 7.59216C 27.5705 7.51799 27.5355 7.45173 27.514 7.41204C 27.5021 7.39018 27.491 7.37022 27.4847 7.35901C 27.481 7.35244 27.4773 7.346 27.4755 7.3427C 27.4742 7.34058 27.4729 7.33827 27.4723 7.33721C 27.4719 7.33645 27.4713 7.33554 27.4711 7.33516C 27.471 7.33485 27.4707 7.33445 27.4706 7.3343C 27.4706 7.33417 27.4704 7.33398 27.4704 7.33392C 27.4703 7.33374 27.4702 7.33356 26.6051 7.83508ZM 26.1392 9.57595C 26.1444 9.51484 26.1224 9.64022 26.0166 9.76116C 25.9118 9.88873 25.8042 9.983 25.6547 10.1004C 25.5112 10.2147 25.3874 10.2971 25.2758 10.3674C 25.2243 10.3999 25.1885 10.4212 25.1577 10.4392C 25.1443 10.447 25.1369 10.4512 25.1295 10.4553C 25.1268 10.4568 25.1262 10.4572 25.1248 10.458C 25.1245 10.4581 25.1248 10.458 25.1249 10.4579C 25.1248 10.458 25.1257 10.4574 25.1257 10.4575C 25.1255 10.4576 25.1263 10.4571 25.1262 10.4572C 25.1263 10.4571 25.1265 10.457 25.1265 10.457C 25.1267 10.4569 25.1268 10.4568 25.6051 11.3351C 26.0833 12.2133 26.0834 12.2132 26.0836 12.2131C 26.0837 12.2131 26.0839 12.213 26.084 12.2129C 26.0842 12.2128 26.0846 12.2126 26.0849 12.2124C 26.0853 12.2122 26.0863 12.2117 26.087 12.2113C 26.0881 12.2107 26.0905 12.2093 26.0927 12.2081C 26.0961 12.2062 26.1028 12.2025 26.1096 12.1987C 26.1211 12.1922 26.1415 12.1806 26.1637 12.1677C 26.204 12.1442 26.2703 12.1046 26.3427 12.059C 26.4788 11.9731 26.6897 11.8306 26.8944 11.6699C 27.2557 11.3845 27.8721 10.8351 28.0709 10.0942L 26.1392 9.57595ZM 25.6051 11.3351C 24.7608 11.8711 24.7607 11.8709 24.7607 11.8708C 24.7606 11.8707 24.7605 11.8706 24.7605 11.8705C 24.7605 11.8706 24.7601 11.8699 24.7602 11.87C 24.7602 11.8701 24.7596 11.8691 24.7597 11.8693C 24.7597 11.8693 24.7593 11.8687 24.7593 11.8687C 24.7599 11.8696 24.7598 11.8695 24.7608 11.871C 24.7638 11.8759 24.7663 11.88 24.7717 11.8889C 24.7844 11.9102 24.7983 11.9338 24.8189 11.9707C 24.8646 12.0524 24.9123 12.142 24.9649 12.2615C 25.0208 12.3861 25.0569 12.477 25.0853 12.5927C 25.1162 12.705 25.0995 12.769 25.1102 12.7341L 27.0999 12.936C 27.1595 12.3485 26.933 11.7646 26.7919 11.4479C 26.7118 11.2692 26.6228 11.099 26.565 10.9954C 26.5338 10.9397 26.5043 10.8893 26.4865 10.8597C 26.4766 10.8432 26.4671 10.8277 26.4619 10.8193C 26.4588 10.8142 26.4556 10.8091 26.454 10.8066C 26.4529 10.8049 26.4518 10.803 26.4512 10.8022C 26.4508 10.8015 26.4503 10.8008 26.4501 10.8004C 26.45 10.8002 26.4498 10.7998 26.4497 10.7997C 26.4496 10.7996 26.4495 10.7994 26.4495 10.7994C 26.4494 10.7992 26.4493 10.7991 25.6051 11.3351ZM 25.1102 12.7341C 25.1048 12.694 25.1123 12.7631 25.0462 12.8766C 24.9821 12.9953 24.9139 13.0846 24.8123 13.2051C 24.7156 13.3213 24.6319 13.4067 24.5536 13.4828C 24.518 13.5176 24.4939 13.5399 24.4722 13.5596C 24.4631 13.5679 24.4584 13.5721 24.4534 13.5766C 24.4516 13.5781 24.4515 13.5782 24.4506 13.579C 24.4505 13.5791 24.451 13.5787 24.451 13.5786C 24.4508 13.5788 24.4518 13.578 24.4517 13.578C 24.4515 13.5782 24.4522 13.5776 24.4522 13.5776C 24.4522 13.5776 24.4524 13.5774 24.4524 13.5774C 24.4526 13.5773 24.4527 13.5772 25.1051 14.3351C 25.7574 15.093 25.7576 15.0929 25.7577 15.0927C 25.7578 15.0927 25.7579 15.0925 25.758 15.0924C 25.7582 15.0923 25.7585 15.092 25.7588 15.0918C 25.7591 15.0916 25.7598 15.0909 25.7605 15.0904C 25.7613 15.0896 25.7632 15.088 25.7649 15.0865C 25.7674 15.0843 25.7726 15.0798 25.7777 15.0753C 25.7862 15.0677 25.8016 15.054 25.818 15.0391C 25.8474 15.0123 25.8964 14.9667 25.949 14.9156C 26.0471 14.8199 26.2001 14.6616 26.3446 14.4904C 26.5976 14.1887 27.0314 13.6114 27.0999 12.936L 25.1102 12.7341ZM 25.1051 14.3351C 24.6755 13.432 24.6756 13.432 24.6756 13.432C 24.6756 13.432 24.6756 13.432 24.6756 13.432C 24.6757 13.432 24.6756 13.432 24.6756 13.432C 24.6755 13.432 24.6754 13.4321 24.6752 13.4322C 24.6746 13.4325 24.6739 13.4328 24.6727 13.4334C 24.6701 13.4346 24.6667 13.4362 24.6616 13.4386C 24.651 13.4436 24.6362 13.4506 24.6159 13.46C 24.5744 13.4794 24.5162 13.5064 24.4411 13.5407C 24.2888 13.6103 24.0818 13.7031 23.8403 13.8065C 23.3527 14.0154 22.7855 14.2435 22.3279 14.3743L 22.8822 16.2959C 23.4349 16.1352 24.1178 15.8633 24.6276 15.645C 24.8847 15.5349 25.1134 15.4324 25.2719 15.36C 25.3523 15.3233 25.4183 15.2927 25.4622 15.2722C 25.4847 15.2617 25.5029 15.2531 25.5146 15.2476C 25.5207 15.2447 25.5257 15.2423 25.5288 15.2409C 25.5305 15.2401 25.5319 15.2394 25.5328 15.239C 25.5333 15.2388 25.5337 15.2385 25.5339 15.2384C 25.5341 15.2384 25.5343 15.2383 25.5343 15.2382C 25.5344 15.2382 25.5345 15.2382 25.5345 15.2382C 25.5345 15.2382 25.5346 15.2381 25.1051 14.3351ZM 22.3279 14.3743C 19.7958 15.1469 18.2127 14.6359 15.2014 14.3397L 15.0087 16.3304C 17.828 16.5985 19.7859 17.1468 22.8822 16.2959L 22.3279 14.3743ZM 15.2014 14.3397C 14.5368 14.2757 13.6898 14.1544 12.992 14.0469C 12.6443 13.9933 12.341 13.9441 12.1217 13.9079C 12.0127 13.8899 11.9262 13.8753 11.866 13.8651C 11.8362 13.8601 11.8135 13.8562 11.7979 13.8535C 11.7902 13.8522 11.7845 13.8513 11.7806 13.8506C 11.7787 13.8503 11.7773 13.85 11.7764 13.8499C 11.7759 13.8498 11.7756 13.8497 11.7754 13.8497C 11.7753 13.8497 11.7752 13.8497 11.7752 13.8497C 11.7752 13.8497 11.7752 13.8497 11.7752 13.8497C 11.7752 13.8497 11.7752 13.8497 11.6051 14.8351C 11.4349 15.8205 11.435 15.8205 11.435 15.8205C 11.435 15.8205 11.4351 15.8205 11.4351 15.8205C 11.4352 15.8205 11.4353 15.8206 11.4355 15.8206C 11.4358 15.8206 11.4363 15.8207 11.4368 15.8208C 11.4379 15.821 11.4397 15.8213 11.4418 15.8217C 11.446 15.8224 11.4524 15.8235 11.4607 15.8249C 11.4768 15.8277 11.5012 15.8318 11.5322 15.8371C 11.5936 15.8475 11.6839 15.8627 11.7956 15.8811C 12.0179 15.9179 12.3319 15.9687 12.6874 16.0235C 13.396 16.1327 14.299 16.2615 15.0087 16.3304L 15.2014 14.3397ZM 10.1051 4.13508C 10.5907 5.00924 10.5906 5.00928 10.5906 5.0093C 10.5906 5.0093 10.5906 5.00931 10.5906 5.00929C 10.5907 5.00923 10.5908 5.00919 10.591 5.00907C 10.5916 5.00876 10.5922 5.00839 10.5933 5.00778C 10.5958 5.00642 10.5991 5.00459 10.6039 5.00192C 10.6141 4.99631 10.6285 4.9884 10.6484 4.97754C 10.6891 4.95527 10.7476 4.92344 10.8254 4.88163C 10.983 4.79692 11.2084 4.67728 11.4949 4.52946C 12.0723 4.2315 12.87 3.83325 13.7963 3.40963C 15.6575 2.55786 17.9143 1.64994 19.782 1.31929L 19.4281 -0.649137C 17.3631 -0.272607 14.8699 0.719476 12.9643 1.59091C 12.0072 2.02889 11.1672 2.44804 10.5779 2.75209C 10.281 2.90527 10.0407 3.03278 9.87852 3.11997C 9.7964 3.16411 9.73148 3.19942 9.68872 3.2228C 9.66685 3.23476 9.64949 3.24431 9.63835 3.25045C 9.63255 3.25365 9.62781 3.25627 9.62488 3.25789C 9.6233 3.25877 9.62193 3.25952 9.62114 3.25996C 9.62068 3.26021 9.62026 3.26045 9.62003 3.26058C 9.61989 3.26066 9.61974 3.26074 9.61966 3.26078C 9.61953 3.26085 9.61943 3.26091 10.1051 4.13508ZM 11.1051 4.13508L 11.1051 2.83507L 9.10505 2.83508L 9.10505 4.13508L 11.1051 4.13508ZM 10.1051 1.83508L 6.60505 1.83508L 6.60505 3.83508L 10.1051 3.83508L 10.1051 1.83508ZM 7.31216 3.54218L 7.81216 3.04218L 6.39795 1.62797L 5.89795 2.12797L 7.31216 3.54218ZM 7.10505 1.33508L 0.605054 1.33508L 0.605054 3.33508L 7.10505 3.33508L 7.10505 1.33508ZM 8.58087 17.7146C 8.97313 17.5024 9.20691 17.1542 9.28771 16.7779C 9.33191 16.503 9.29745 16.1455 9.25027 15.9672C 9.19646 15.7857 9.11086 15.5908 9.0612 15.4942C 9.0324 15.4391 9.00062 15.3833 8.98373 15.3549C 8.97337 15.3376 8.96214 15.3194 8.95668 15.3107C 8.95303 15.3049 8.9488 15.2983 8.94695 15.2954C 8.94557 15.2933 8.94383 15.2906 8.94314 15.2895C 8.94257 15.2887 8.9418 15.2875 8.94152 15.2871C 8.94126 15.2867 8.9409 15.2861 8.94077 15.2859C 8.94065 15.2857 8.94048 15.2855 8.94042 15.2854C 8.94025 15.2851 8.94008 15.2849 8.10505 15.8351C 7.27003 16.3853 7.26986 16.385 7.2697 16.3848C 7.26964 16.3847 7.26948 16.3845 7.26938 16.3843C 7.26947 16.3844 7.26857 16.3831 7.26877 16.3834C 7.26893 16.3836 7.26732 16.3812 7.26766 16.3817C 7.26789 16.382 7.26543 16.3782 7.26591 16.379C 7.26596 16.3791 7.26388 16.3758 7.2641 16.3761C 7.26267 16.3739 7.26425 16.3763 7.26622 16.3797C 7.274 16.3926 7.27638 16.3964 7.28553 16.4145C 7.31177 16.4644 7.31724 16.4702 7.32415 16.5058C 7.33293 16.5372 7.30716 16.475 7.33226 16.3581C 7.34669 16.2908 7.37795 16.2074 7.43795 16.1255C 7.49876 16.0426 7.5697 15.9877 7.62923 15.9555L 8.58087 17.7146ZM -0.262609 1.83792C -0.480358 2.21795 -0.609618 2.74167 -0.699204 3.24479C -0.79176 3.76756 -0.865926 4.42695 -0.915217 5.12947C -1.01212 6.52347 -1.02666 8.24493 -0.951616 9.91221C -0.875809 11.5801 -0.704877 13.274 -0.438846 14.5926C -0.302469 15.2621 -0.122121 15.9052 0.0777024 16.3849C 0.270095 16.8417 0.581589 17.4132 1.12284 17.7111L 2.08727 15.959C 2.17434 16.0069 2.08258 15.9925 1.92093 15.6087C 1.76672 15.2477 1.64224 14.7951 1.52128 14.1953C 1.27266 12.9751 1.11892 11.435 1.04634 9.82185C 0.973001 8.20812 0.986356 6.60157 1.07992 5.26884C 1.12586 4.60799 1.18757 4.05433 1.26982 3.5954C 1.35504 3.11681 1.43952 2.89017 1.47272 2.83223L -0.262609 1.83792ZM 1.12284 17.7111C 1.37439 17.8496 1.68659 17.909 1.89076 17.9424C 2.12609 17.9805 2.4306 18.0133 2.74272 18.0366C 3.35782 18.0819 4.12876 18.1034 4.87507 18.1015C 5.62143 18.0994 6.38799 18.0739 6.99576 18.0276C 7.30407 18.0038 7.60226 17.9716 7.83148 17.9352C 8.02491 17.9042 8.33423 17.848 8.58087 17.7146L 7.62923 15.9555C 7.71895 15.907 7.72851 15.9261 7.51488 15.9604C 7.33704 15.9892 7.12085 16.0123 6.84302 16.0334C 6.27849 16.0769 5.58564 16.0997 4.8697 16.1015C 4.1537 16.1036 3.45946 16.0845 2.8907 16.0421C 2.6109 16.0214 2.39381 15.9985 2.21342 15.9686C 2.00186 15.934 2.00419 15.9133 2.08727 15.959L 1.12284 17.7111ZM 35.6051 2.83508C 31.6051 2.83508 32.6051 2.83508 30.1051 2.83508L 30.1051 4.83508C 32.6051 4.83508 31.6051 4.83508 35.6051 4.83508L 35.6051 2.83508ZM 8.10505 16.8351L 11.6051 16.8351L 11.6051 14.8351L 8.10505 14.8351L 8.10505 16.8351ZM 12.6051 15.8351L 12.6051 14.8351L 10.6051 14.8351L 10.6051 15.8351L 12.6051 15.8351Z"/>
<path id="path1_stroke" d="M 19.6051 0.335077L 19.7378 1.07324L 19.6051 0.335077ZM 28.6051 0.335077L 28.6542 -0.41331L 28.6051 0.335077ZM 36.605 1.33508L 37.315 1.09315L 36.726 0.594888L 36.605 1.33508ZM 36.605 2.83508L 36.005 2.38508L 36.005 2.38508L 36.605 2.83508ZM 35.6051 3.83508L 35.6051 4.58508L 35.6051 3.83508ZM 29.6051 3.83508L 30.3144 3.59154L 29.7284 3.09528L 29.6051 3.83508ZM 29.6051 5.83508L 30.2016 6.28961L 30.2016 6.28961L 29.6051 5.83508ZM 24.1051 6.33508L 24.1539 5.58667L 24.1051 6.33508ZM 21.1051 6.33508L 21.0738 5.58572L 20.5051 5.88508L 21.1051 6.33508ZM 18.1051 10.3351L 18.3844 11.0311L 18.7051 10.7851L 18.1051 10.3351ZM 27.1051 9.83508L 26.3807 9.64073L 27.1051 9.83508ZM 26.1051 12.8351L 25.3589 12.7594L 26.1051 12.8351ZM 25.1051 14.3351L 25.4272 15.0124L 25.5943 14.9035L 25.1051 14.3351ZM 22.6051 15.3351L 22.8129 16.0557L 22.6051 15.3351ZM 15.1051 15.3351L 15.1773 14.5886L 15.1051 15.3351ZM 9.60505 10.3351L 10.3353 10.1641L 9.60505 10.3351ZM 10.1051 4.13508L 10.3836 4.83143L 10.4693 4.7907L 10.1051 4.13508ZM 10.1051 2.83508L 10.8551 2.83507L 10.1051 2.08508L 10.1051 2.83508ZM 6.60505 2.83508L 6.07472 2.30475L 5.86923 2.68996L 6.60505 2.83508ZM 8.10505 15.8351L 7.4115 16.1205L 7.47878 16.2477L 8.10505 15.8351ZM 7.10505 2.33508L 7.63538 2.86541L 7.10505 1.58508L 7.10505 2.33508ZM 0.605054 2.33508L 0.605054 1.58508L -0.0456931 1.96221L 0.605054 2.33508ZM 1.60505 16.8351L 1.24339 17.4921L 1.60505 16.8351ZM 8.10505 16.8351L 7.74819 16.1754L 8.10505 16.8351ZM 24.6051 8.86642L 24.8967 9.55741L 24.6051 8.86642ZM 11.6051 15.8351L 11.6051 16.5851L 12.3551 15.8351L 11.6051 15.8351ZM 19.7378 1.07324C 23.0597 0.463022 25.0022 0.848551 28.5559 1.08346L 28.6542 -0.41331C 25.1936 -0.639192 23.0689 -1.03695 19.4723 -0.403084L 19.7378 1.07324ZM 28.5559 1.08346C 30.1048 1.18489 32.0776 1.4318 33.6796 1.65528C 34.4795 1.76685 35.1797 1.87173 35.6828 1.94913C 35.9338 1.98774 36.134 2.01925 36.2724 2.04126C 36.3413 2.05223 36.3942 2.06072 36.4303 2.06654C 36.4482 2.06944 36.4617 2.07161 36.4708 2.0731C 36.4754 2.07384 36.4787 2.07438 36.481 2.07475C 36.4821 2.07493 36.4829 2.07506 36.4834 2.07515C 36.4837 2.07519 36.4839 2.07522 36.484 2.07524C 36.4841 2.07525 36.4841 2.07526 36.4841 2.07526C 36.4841 2.07527 36.4841 2.07527 36.605 1.33508C 36.726 0.594888 36.7259 0.594881 36.7259 0.594871C 36.7258 0.594864 36.7257 0.594851 36.7256 0.594837C 36.7255 0.59481 36.7252 0.594767 36.7249 0.594714C 36.7243 0.594613 36.7233 0.594454 36.7221 0.594253C 36.7197 0.593861 36.716 0.59326 36.7112 0.592486C 36.7018 0.590958 36.6876 0.588656 36.6691 0.585683C 36.6325 0.579778 36.578 0.571022 36.508 0.559883C 36.3684 0.537686 36.1645 0.505585 35.9109 0.466573C 35.4049 0.38872 34.6942 0.282297 33.8868 0.169666C 32.2742 -0.0552544 30.247 -0.308347 28.6542 -0.41331L 28.5559 1.08346ZM 36.605 1.33508C 35.8951 1.577 35.8951 1.57685 35.895 1.5767C 35.895 1.57666 35.895 1.57652 35.8949 1.57643C 35.895 1.5765 35.8947 1.5758 35.8948 1.57595C 35.8948 1.57603 35.8945 1.57508 35.8945 1.57525C 35.8945 1.57518 35.8944 1.57479 35.8944 1.57491C 35.8948 1.576 35.8949 1.57624 35.8955 1.57827C 35.8974 1.58406 35.8992 1.58952 35.9024 1.60009C 35.91 1.62488 35.9183 1.65285 35.9293 1.69499C 35.9538 1.78719 35.9772 1.88672 35.994 2.01249C 36.0126 2.14296 36.0199 2.22634 36.0071 2.32739C 36.0005 2.42329 35.9885 2.38664 36.005 2.38508L 37.205 3.28508C 37.5795 2.78578 37.5242 2.12675 37.4797 1.8062C 37.4525 1.61554 37.4101 1.42794 37.3796 1.31212C 37.3632 1.25024 37.3468 1.19397 37.3365 1.16053C 37.3308 1.14199 37.3254 1.12482 37.3223 1.11528C 37.3205 1.10964 37.3186 1.10403 37.3177 1.10119C 37.317 1.09935 37.3164 1.09732 37.3161 1.0964C 37.3158 1.09573 37.3156 1.09491 37.3154 1.09458C 37.3154 1.09431 37.3152 1.09395 37.3152 1.09382C 37.3151 1.0937 37.3151 1.09353 37.3151 1.09347C 37.315 1.09331 37.315 1.09315 36.605 1.33508ZM 36.005 2.38508C 35.9233 2.49493 35.8418 2.62134 35.7717 2.72859C 35.7015 2.83608 35.6447 2.92269 35.5816 3.00172C 35.5215 3.07795 35.4859 3.10831 35.4749 3.1161C 35.4695 3.11993 35.5175 3.08508 35.6051 3.08508L 35.6051 4.58508C 36.2046 4.58508 36.587 4.14922 36.7595 3.9304C 36.9563 3.67721 37.1021 3.41966 37.205 3.28508L 36.005 2.38508ZM 29.6051 3.83508C 28.8957 4.07862 28.8956 4.07847 28.8956 4.07832C 28.8956 4.07828 28.8955 4.07814 28.8955 4.07806C 28.8955 4.07812 28.8953 4.0775 28.8954 4.07762C 28.8954 4.07767 28.8952 4.07703 28.8952 4.07711C 28.8951 4.07687 28.8952 4.07706 28.8953 4.07751C 28.8959 4.07926 28.8963 4.08048 28.8974 4.0838C 28.9001 4.09216 28.9031 4.1014 28.9079 4.11686C 28.9186 4.15144 28.9311 4.19351 28.9468 4.25309C 28.9808 4.38018 29.0155 4.52764 29.0398 4.70616C 29.0985 5.12511 29.0418 5.33681 29.0085 5.38054L 30.2016 6.28961C 30.6417 5.71207 30.585 4.92378 30.5253 4.49804C 30.4904 4.25422 30.4364 4.01816 30.3964 3.86734C 30.3752 3.78795 30.3544 3.71745 30.3411 3.6742C 30.3338 3.65075 30.3271 3.62976 30.3231 3.61763C 30.3208 3.61069 30.3187 3.6041 30.3175 3.60059C 30.3167 3.59841 30.316 3.59613 30.3156 3.59504C 30.3154 3.59429 30.3151 3.59341 30.3149 3.59303C 30.3148 3.59274 30.3147 3.59237 30.3146 3.59222C 30.3146 3.5921 30.3145 3.59193 30.3145 3.59186C 30.3145 3.5917 30.3144 3.59154 29.6051 3.83508ZM 29.0085 5.38054C 28.9051 5.5162 28.592 5.7052 28.1513 5.8758C 27.9534 5.95279 27.7793 6.00785 27.6383 6.04907C 27.5707 6.0689 27.52 6.08262 27.4809 6.09287C 27.4627 6.09764 27.4506 6.10071 27.4408 6.10315C 27.4365 6.10421 27.4343 6.10476 27.432 6.1053C 27.4313 6.10549 27.4311 6.10552 27.4307 6.10562C 27.4307 6.10563 27.4308 6.10559 27.4309 6.10558C 27.4308 6.1056 27.4312 6.10551 27.4311 6.10552C 27.4312 6.10551 27.4313 6.10548 27.4313 6.10548C 27.4314 6.10545 27.4315 6.10543 27.6051 6.83508C 27.7786 7.56472 27.7787 7.5647 27.7788 7.56467C 27.7789 7.56465 27.779 7.56462 27.7791 7.5646C 27.7792 7.56457 27.7795 7.56449 27.7798 7.56443C 27.7801 7.56435 27.7809 7.56417 27.7816 7.56401C 27.7826 7.56376 27.7847 7.56326 27.7868 7.56275C 27.7903 7.56189 27.7966 7.56035 27.8035 7.55861C 27.8161 7.55547 27.837 7.55019 27.8611 7.54388C 27.9066 7.53196 27.9778 7.51258 28.0596 7.48869C 28.2173 7.44247 28.4517 7.3676 28.6928 7.27464C 29.1302 7.10534 29.8171 6.79435 30.2016 6.28961L 29.0085 5.38054ZM 27.6051 6.83508C 27.7474 6.0987 27.7473 6.09869 27.7473 6.09869C 27.7473 6.09868 27.7472 6.09867 27.7472 6.09866C 27.7471 6.09864 27.7469 6.09861 27.7467 6.09858C 27.7465 6.09852 27.7459 6.09843 27.7454 6.09831C 27.7443 6.0981 27.7425 6.09776 27.7403 6.09734C 27.7361 6.09653 27.7295 6.09528 27.7213 6.0937C 27.705 6.09061 27.6805 6.08596 27.6495 6.08013C 27.588 6.0686 27.4973 6.05178 27.3853 6.03155C 27.1629 5.99135 26.8478 5.9361 26.4916 5.87841C 25.7819 5.76356 24.8714 5.63402 24.1539 5.58667L 24.0562 7.08349C 24.7165 7.12599 25.556 7.24645 26.2519 7.35913C 26.5984 7.41521 26.9 7.46812 27.1185 7.50763C 27.2271 7.52725 27.3129 7.54317 27.3729 7.55442C 27.4025 7.55998 27.425 7.56423 27.4405 7.56719C 27.4481 7.56864 27.4537 7.5697 27.4576 7.57045C 27.4594 7.57081 27.4607 7.57106 27.4617 7.57124C 27.4621 7.57133 27.4624 7.57138 27.4626 7.57142C 27.4627 7.57144 27.4627 7.57144 27.4628 7.57145C 27.4628 7.57146 27.4628 7.57145 27.4628 7.57146C 27.4628 7.57145 27.4627 7.57145 27.6051 6.83508ZM 24.1539 5.58667C 23.5449 5.54735 22.7646 5.54698 22.1548 5.55658C 21.8487 5.56142 21.5775 5.56872 21.3859 5.57472C 21.2895 5.57775 21.2113 5.5805 21.1583 5.58246C 21.1315 5.58345 21.1104 5.58427 21.0964 5.58482C 21.0892 5.5851 21.0836 5.58533 21.08 5.58547C 21.0781 5.58555 21.0765 5.58561 21.0756 5.58565C 21.0751 5.58567 21.0746 5.58569 21.0744 5.5857C 21.0742 5.58571 21.0741 5.58571 21.074 5.58572C 21.074 5.58572 21.0739 5.58572 21.0739 5.58572C 21.0739 5.58572 21.0738 5.58572 21.1051 6.33508C 21.1363 7.08443 21.1362 7.08443 21.1362 7.08443C 21.1362 7.08443 21.1362 7.08443 21.1362 7.08443C 21.1363 7.08442 21.1363 7.08442 21.1364 7.08442C 21.1366 7.08441 21.1368 7.0844 21.1372 7.08439C 21.138 7.08435 21.1391 7.08431 21.1407 7.08424C 21.1441 7.08411 21.1489 7.08391 21.1554 7.08366C 21.1688 7.08313 21.1882 7.08238 21.2137 7.08144C 21.2654 7.07952 21.3394 7.07692 21.4329 7.07398C 21.6212 7.06808 21.8807 7.06108 22.1785 7.05639C 22.7764 7.04693 23.4961 7.04656 24.0562 7.08349L 24.1539 5.58667ZM 18.1051 10.3351C 17.8257 9.63905 17.8258 9.639 17.8259 9.63896C 17.8259 9.63895 17.826 9.63891 17.8261 9.63889C 17.8261 9.63889 17.8262 9.63884 17.8262 9.63884C 17.826 9.63892 17.826 9.63893 17.8256 9.63909C 17.8244 9.63955 17.8233 9.64001 17.821 9.64091C 17.8156 9.64301 17.8089 9.64564 17.7986 9.64963C 17.7764 9.65821 17.7463 9.66966 17.7043 9.68515C 17.6171 9.71736 17.4974 9.7601 17.3419 9.8113C 17.0239 9.91622 16.605 10.0416 16.12 10.1466C 15.1076 10.367 14.0678 10.437 13.4051 10.1477L 12.805 11.5225C 13.9409 12.0182 15.401 11.8382 16.439 11.6123C 16.9791 11.4942 17.4731 11.3474 17.8115 11.2359C 17.9843 11.1789 18.1288 11.1274 18.2237 11.0924C 18.2727 11.0743 18.3132 11.0589 18.3387 11.049C 18.3523 11.0438 18.3638 11.0393 18.3707 11.0366C 18.3745 11.0351 18.3779 11.0337 18.3799 11.0329C 18.381 11.0325 18.3822 11.032 18.3827 11.0318C 18.3831 11.0316 18.3835 11.0315 18.3837 11.0314C 18.3839 11.0313 18.384 11.0313 18.3841 11.0312C 18.3843 11.0312 18.3844 11.0311 18.1051 10.3351ZM 27.0747 6.30475L 26.0747 7.30475L 27.1354 8.36541L 28.1354 7.3654L 27.0747 6.30475ZM 26.6051 7.83508C 25.9562 8.21122 25.9561 8.21109 25.9561 8.21097C 25.956 8.21094 25.956 8.21083 25.9559 8.21076C 25.956 8.21081 25.9557 8.21031 25.9557 8.21041C 25.9557 8.21043 25.9555 8.20998 25.9555 8.21003C 25.9554 8.20979 25.9555 8.21009 25.9558 8.21054C 25.9567 8.21215 25.9574 8.21341 25.9592 8.21648C 25.9634 8.22408 25.9683 8.23275 25.9759 8.24693C 25.993 8.27832 26.0138 8.3175 26.0413 8.37278C 26.0997 8.48994 26.1659 8.63163 26.2311 8.80687C 26.3775 9.19728 26.4187 9.49911 26.3807 9.64073L 27.8294 10.0294C 28.0001 9.39345 27.7912 8.69529 27.6355 8.2801C 27.5496 8.05253 27.4516 7.84002 27.3838 7.70367C 27.3481 7.63221 27.3151 7.56981 27.2942 7.53131C 27.283 7.51055 27.2728 7.4922 27.2668 7.48151C 27.2633 7.47544 27.2601 7.46974 27.2584 7.46668C 27.2573 7.46479 27.2562 7.46284 27.2556 7.4619C 27.2553 7.46126 27.2548 7.46051 27.2546 7.46019C 27.2545 7.45995 27.2543 7.45963 27.2542 7.45951C 27.2542 7.4594 27.2541 7.45926 27.2541 7.45921C 27.254 7.45907 27.2539 7.45894 26.6051 7.83508ZM 26.3807 9.64073C 26.3419 9.7852 26.148 10.0294 25.8097 10.2966C 25.6585 10.4166 25.5238 10.5066 25.4091 10.5789C 25.3551 10.613 25.3155 10.6366 25.2834 10.6552C 25.269 10.6637 25.2599 10.6688 25.252 10.6732C 25.2488 10.675 25.2475 10.6758 25.2458 10.6767C 25.2453 10.677 25.2449 10.6772 25.2452 10.677C 25.2451 10.6771 25.2456 10.6768 25.2456 10.6768C 25.2455 10.6769 25.246 10.6766 25.2459 10.6766C 25.246 10.6766 25.2461 10.6765 25.2461 10.6765C 25.2463 10.6765 25.2464 10.6764 25.6051 11.3351C 25.9637 11.9938 25.9638 11.9937 25.964 11.9936C 25.964 11.9936 25.9642 11.9935 25.9643 11.9934C 25.9644 11.9934 25.9648 11.9932 25.965 11.9931C 25.9653 11.9929 25.9661 11.9925 25.9668 11.9921C 25.9678 11.9915 25.9698 11.9904 25.9717 11.9894C 25.9749 11.9876 25.9808 11.9843 25.9871 11.9808C 25.9981 11.9746 26.0169 11.9639 26.038 11.9516C 26.0771 11.9289 26.1396 11.8915 26.2093 11.8476C 26.3424 11.7636 26.5424 11.6286 26.7394 11.4737C 27.0974 11.1909 27.6535 10.6851 27.8294 10.0294L 26.3807 9.64073ZM 25.6051 11.3351C 24.9719 11.7371 24.9718 11.737 24.9718 11.7369C 24.9717 11.7368 24.9717 11.7367 24.9716 11.7367C 24.9717 11.7367 24.9714 11.7362 24.9714 11.7363C 24.9714 11.7364 24.9711 11.7358 24.9711 11.7359C 24.9711 11.7358 24.971 11.7357 24.9712 11.7359C 24.9718 11.737 24.9722 11.7376 24.9734 11.7396C 24.9767 11.7449 24.9801 11.7504 24.986 11.7603C 24.9994 11.7826 25.0153 11.8095 25.0372 11.8488C 25.0844 11.9332 25.1372 12.0329 25.1933 12.1598C 25.3199 12.4442 25.3687 12.6625 25.3589 12.7594L 26.8512 12.9108C 26.9037 12.3934 26.7025 11.8617 26.5636 11.5496C 26.4868 11.3783 26.403 11.2182 26.3467 11.1173C 26.3169 11.064 26.2893 11.0169 26.2722 10.9884C 26.2628 10.9728 26.2542 10.9588 26.2493 10.9508C 26.2464 10.9461 26.2436 10.9417 26.2422 10.9393C 26.2412 10.9379 26.2402 10.9363 26.2398 10.9355C 26.2395 10.935 26.2391 10.9344 26.2389 10.9341C 26.2388 10.9339 26.2386 10.9337 26.2385 10.9336C 26.2385 10.9335 26.2384 10.9334 26.2384 10.9333C 26.2383 10.9332 26.2382 10.9331 25.6051 11.3351ZM 25.3589 12.7594C 25.3481 12.8657 25.236 13.089 25.0038 13.3657C 24.9012 13.4889 24.8088 13.5833 24.728 13.6619C 24.6903 13.6987 24.6631 13.724 24.6404 13.7445C 24.6304 13.7537 24.6244 13.759 24.6189 13.7639C 24.6167 13.7658 24.616 13.7664 24.6149 13.7674C 24.6146 13.7677 24.6145 13.7677 24.6147 13.7676C 24.6146 13.7677 24.6151 13.7672 24.6151 13.7673C 24.615 13.7673 24.6154 13.7669 24.6154 13.767C 24.6154 13.7669 24.6155 13.7668 24.6156 13.7668C 24.6157 13.7667 24.6158 13.7666 25.1051 14.3351C 25.5943 14.9035 25.5944 14.9034 25.5946 14.9033C 25.5946 14.9033 25.5947 14.9032 25.5948 14.9031C 25.5949 14.903 25.5952 14.9028 25.5954 14.9026C 25.5956 14.9024 25.5962 14.9018 25.5968 14.9014C 25.5975 14.9007 25.5991 14.8994 25.6006 14.8981C 25.603 14.896 25.6074 14.8921 25.6121 14.888C 25.6202 14.8808 25.6343 14.8682 25.6498 14.8542C 25.6782 14.8283 25.7241 14.7856 25.7746 14.7365C 25.8702 14.6433 26.0145 14.4941 26.153 14.3297C 26.4031 14.0316 26.791 13.5048 26.8512 12.9108L 25.3589 12.7594ZM 25.1051 14.3351C 24.7829 13.6578 24.7829 13.6578 24.783 13.6578C 24.783 13.6578 24.783 13.6578 24.783 13.6578C 24.783 13.6577 24.783 13.6578 24.7829 13.6578C 24.7828 13.6579 24.7826 13.6579 24.7824 13.658C 24.7817 13.6583 24.781 13.6587 24.7797 13.6593C 24.7771 13.6606 24.7734 13.6623 24.7682 13.6647C 24.7575 13.6698 24.7422 13.677 24.7217 13.6865C 24.6799 13.7061 24.6207 13.7335 24.545 13.7681C 24.3918 13.838 24.1822 13.9321 23.9387 14.0363C 23.4483 14.2464 22.8667 14.48 22.3972 14.6145L 22.8129 16.0557C 23.3537 15.8987 24.0221 15.6323 24.5292 15.4152C 24.7844 15.3059 25.0103 15.2046 25.168 15.1326C 25.2478 15.0962 25.3128 15.066 25.3564 15.0456C 25.3786 15.0353 25.3964 15.0269 25.4079 15.0215C 25.4139 15.0187 25.4187 15.0164 25.4218 15.0149C 25.4234 15.0142 25.4248 15.0135 25.4256 15.0131C 25.426 15.0129 25.4264 15.0127 25.4267 15.0126C 25.4268 15.0126 25.4269 15.0125 25.427 15.0125C 25.427 15.0124 25.4271 15.0124 25.4271 15.0124C 25.4272 15.0124 25.4272 15.0124 25.1051 14.3351ZM 22.3972 14.6145C 19.7946 15.3969 18.1646 14.8812 15.1773 14.5886L 15.0328 16.0816C 17.8761 16.3532 19.7872 16.8969 22.8129 16.0557L 22.3972 14.6145ZM 15.1773 14.5886C 14.5071 14.5239 13.6531 14.4017 12.9539 14.294C 12.6052 14.2402 12.3006 14.1908 12.081 14.1545C 11.9716 14.1365 11.8846 14.1218 11.8243 14.1116C 11.7943 14.1066 11.7714 14.1027 11.7557 14.1C 11.748 14.0986 11.7422 14.0977 11.7382 14.097C 11.7363 14.0966 11.7349 14.0964 11.7339 14.0962C 11.7335 14.0961 11.7331 14.0961 11.7329 14.0961C 11.7328 14.096 11.7327 14.096 11.7327 14.096C 11.7327 14.096 11.7327 14.096 11.7326 14.096C 11.7326 14.096 11.7327 14.096 11.6051 14.8351C 11.4775 15.5741 11.4775 15.5741 11.4775 15.5742C 11.4775 15.5742 11.4776 15.5742 11.4776 15.5742C 11.4777 15.5742 11.4778 15.5742 11.478 15.5742C 11.4783 15.5743 11.4787 15.5744 11.4793 15.5745C 11.4804 15.5746 11.482 15.5749 11.4842 15.5753C 11.4883 15.576 11.4947 15.5771 11.5028 15.5785C 11.5189 15.5812 11.5431 15.5854 11.5739 15.5906C 11.6351 15.601 11.725 15.6161 11.8364 15.6345C 12.0583 15.6711 12.371 15.7218 12.7255 15.7765C 13.4328 15.8854 14.3287 16.0133 15.0328 16.0816L 15.1773 14.5886ZM 11.6051 14.8351C 12.2498 14.4519 12.2498 14.452 12.2498 14.452C 12.2498 14.452 12.2499 14.452 12.2499 14.452C 12.2499 14.4521 12.2498 14.452 12.2498 14.4519C 12.2496 14.4517 12.2495 14.4514 12.2492 14.451C 12.2486 14.4499 12.2477 14.4485 12.2465 14.4463C 12.2437 14.4416 12.2399 14.4351 12.2345 14.4259C 12.2234 14.407 12.2077 14.38 12.1868 14.3438C 12.1441 14.2698 12.0843 14.165 12.0097 14.0308C 11.8587 13.7593 11.6576 13.3869 11.4404 12.952C 11.0026 12.0763 10.5352 11.0325 10.3353 10.1641L 8.87481 10.5061C 9.11332 11.5102 9.64597 12.7163 10.0986 13.6225C 10.3265 14.0785 10.5432 14.4801 10.6987 14.7598C 10.7773 14.9011 10.843 15.0162 10.8874 15.0933C 10.9101 15.1325 10.9284 15.1639 10.9403 15.1843C 10.9465 15.1948 10.9515 15.2033 10.9547 15.2087C 10.9564 15.2115 10.9578 15.2139 10.9586 15.2154C 10.9591 15.2162 10.9595 15.2169 10.9598 15.2173C 10.9599 15.2175 10.96 15.2178 10.9601 15.2179C 10.9602 15.218 10.9602 15.2181 10.9602 15.2181C 10.9603 15.2182 10.9603 15.2182 11.6051 14.8351ZM 10.1051 4.13508C 10.4693 4.7907 10.4692 4.79073 10.4692 4.79074C 10.4692 4.79073 10.4692 4.79073 10.4693 4.7907C 10.4694 4.79063 10.4695 4.79057 10.4698 4.79043C 10.4704 4.7901 10.4711 4.78969 10.4723 4.78904C 10.4748 4.78765 10.4783 4.78572 10.4832 4.78298C 10.4935 4.77731 10.5083 4.7692 10.5284 4.75819C 10.5694 4.73579 10.6287 4.70352 10.707 4.66142C 10.8652 4.5764 11.0925 4.45578 11.3803 4.30729C 11.9592 4.00857 12.7621 3.6077 13.6923 3.18229C 15.5591 2.32806 17.8454 1.40962 19.7378 1.07324L 19.4723 -0.403084C 17.432 -0.0322885 14.9683 0.949273 13.0683 1.81825C 12.1151 2.25444 11.2803 2.67098 10.6925 2.97426C 10.3969 3.12677 10.1585 3.2533 9.99688 3.34018C 9.9153 3.38403 9.85118 3.4189 9.80867 3.44215C 9.78705 3.45397 9.77007 3.46331 9.75905 3.46938C 9.75336 3.47252 9.7488 3.47504 9.74593 3.47663C 9.74441 3.47747 9.74314 3.47818 9.74237 3.4786C 9.74195 3.47884 9.74156 3.47905 9.74135 3.47917C 9.74122 3.47924 9.74109 3.47931 9.74103 3.47935C 9.74092 3.4794 9.74083 3.47945 10.1051 4.13508ZM 10.8551 4.13508L 10.8551 2.83507L 9.35505 2.83508L 9.35505 4.13508L 10.8551 4.13508ZM 10.1051 2.08508L 6.60505 2.08508L 6.60505 3.58508L 10.1051 3.58508L 10.1051 2.08508ZM 7.13538 3.36541L 7.63538 2.86541L 6.57472 1.80475L 6.07472 2.30475L 7.13538 3.36541ZM 7.10505 1.58508L 0.605054 1.58508L 0.605054 3.08508L 7.10505 3.08508L 7.10505 1.58508ZM 8.46192 17.4947C 8.78647 17.3192 8.97699 17.0342 9.04328 16.7254C 9.08212 16.4927 9.05248 16.1954 9.00951 16.0346C 8.96156 15.8713 8.88597 15.7 8.83924 15.6092C 8.81289 15.5588 8.7848 15.5094 8.76904 15.483C 8.75973 15.4674 8.75006 15.4518 8.74511 15.4439C 8.74194 15.4389 8.73844 15.4334 8.73682 15.4309C 8.73567 15.4291 8.73428 15.4269 8.73371 15.4261C 8.73325 15.4254 8.73265 15.4244 8.73242 15.4241C 8.73222 15.4238 8.73195 15.4234 8.73185 15.4232C 8.73176 15.4231 8.73163 15.4229 8.73158 15.4228C 8.73145 15.4226 8.73132 15.4224 8.10505 15.8351C 7.47878 16.2477 7.47866 16.2475 7.47854 16.2474C 7.4785 16.2473 7.47838 16.2471 7.4783 16.247C 7.47837 16.2471 7.47772 16.2461 7.47786 16.2463C 7.47797 16.2465 7.47687 16.2448 7.4771 16.2452C 7.47721 16.2453 7.4758 16.2432 7.47604 16.2435C 7.47585 16.2432 7.4754 16.2425 7.47567 16.243C 7.4776 16.246 7.47789 16.2464 7.48091 16.2516C 7.48983 16.2664 7.49588 16.2767 7.50749 16.2995C 7.53666 16.3552 7.55215 16.3846 7.56492 16.4385C 7.57909 16.4892 7.56356 16.4717 7.57669 16.4105C 7.58467 16.3734 7.60289 16.3234 7.63959 16.2733C 7.6769 16.2224 7.71872 16.1914 7.74819 16.1754L 8.46192 17.4947ZM -0.0456931 1.96221C -0.240373 2.30198 -0.364035 2.78856 -0.453076 3.28861C -0.544343 3.8034 -0.616952 4.44958 -0.665825 5.14689C -0.762309 6.53324 -0.776703 8.24033 -0.701871 9.90092C -0.626468 11.562 -0.457686 13.2367 -0.19383 14.5429C -0.0593812 15.2038 0.113983 15.823 0.308106 16.2879C 0.496656 16.7356 0.780683 17.2374 1.24339 17.4921L 1.96672 16.178C 2.05221 16.2021 1.83427 16.0571 1.69053 15.7057C 1.53061 15.3299 1.39915 14.8535 1.27627 14.2449C 1.02546 13.0124 0.869578 11.4531 0.796597 9.83315C 0.723043 8.21272 0.736546 6.59181 0.830529 5.25141C 0.87689 4.58536 0.940157 4.01848 1.0237 3.55157C 1.10946 3.06992 1.19953 2.80615 1.2558 2.70794L -0.0456931 1.96221ZM 1.24339 17.4921C 1.45312 17.6076 1.726 17.6622 1.93109 17.6957C 2.15956 17.7327 2.45314 17.7643 2.76122 17.7873C 3.37052 17.8323 4.13188 17.8534 4.8744 17.8515C 5.61695 17.8494 6.3743 17.8243 6.97667 17.7783C 7.28117 17.7549 7.56911 17.7238 7.79191 17.6883C 7.98786 17.6569 8.25732 17.6054 8.46192 17.4947L 7.74819 16.1754C 7.79586 16.1496 7.76556 16.1734 7.55445 16.2072C 7.37019 16.237 7.14376 16.2612 6.86211 16.2827C 6.29218 16.3265 5.59012 16.3497 4.87037 16.3515C 4.15059 16.3535 3.44675 16.3342 2.8722 16.2914C 2.58836 16.2704 2.36035 16.2462 2.17309 16.2153C 1.96245 16.1809 1.92546 16.1553 1.96672 16.178L 1.24339 17.4921ZM 35.6051 3.08508C 31.6051 3.08508 32.6051 3.08508 30.1051 3.08508L 30.1051 4.58508C 32.6051 4.58508 31.6051 4.58508 35.6051 4.58508L 35.6051 3.08508ZM 29.7284 3.09528C 26.4394 2.54713 22.1155 1.43452 18.4709 2.09717L 18.7392 3.57298C 22.046 2.97174 25.9605 3.988 29.4818 4.57487L 29.7284 3.09528ZM 25.6051 11.3351C 25.4738 10.5967 25.4738 10.5967 25.4738 10.5967C 25.4738 10.5967 25.4738 10.5967 25.4738 10.5967C 25.4738 10.5967 25.4737 10.5967 25.4737 10.5967C 25.4735 10.5967 25.4734 10.5967 25.4731 10.5968C 25.4725 10.5969 25.4717 10.597 25.4706 10.5972C 25.4682 10.5976 25.4648 10.5982 25.4601 10.5991C 25.4505 10.6008 25.4366 10.6032 25.4182 10.6064C 25.3808 10.6129 25.3269 10.6223 25.2577 10.6341C 25.1185 10.6578 24.9225 10.6906 24.6878 10.7283C 24.2165 10.8038 23.6052 10.8964 23.0136 10.9691L 23.1966 12.4579C 23.8089 12.3825 24.4476 12.2859 24.9253 12.2093C 25.1651 12.1709 25.3684 12.1368 25.5098 12.1127C 25.5809 12.1006 25.6376 12.0908 25.6759 12.0841C 25.6952 12.0807 25.7103 12.0781 25.7203 12.0763C 25.7254 12.0754 25.7294 12.0747 25.732 12.0743C 25.7333 12.074 25.7344 12.0738 25.7351 12.0737C 25.7355 12.0737 25.7358 12.0736 25.736 12.0736C 25.7361 12.0735 25.7362 12.0735 25.7362 12.0735C 25.7362 12.0735 25.7363 12.0735 25.7363 12.0735C 25.7363 12.0735 25.7363 12.0735 25.6051 11.3351ZM 26.6051 7.83508C 26.2091 7.19813 26.2091 7.1981 26.2092 7.19808C 26.2092 7.19807 26.2092 7.19805 26.2092 7.19803C 26.2092 7.19804 26.2093 7.19798 26.2093 7.19799C 26.2094 7.19796 26.2093 7.19799 26.2092 7.19805C 26.2089 7.19825 26.2086 7.19841 26.208 7.1988C 26.2065 7.19974 26.2046 7.20088 26.2016 7.20272C 26.1951 7.20674 26.1863 7.21213 26.1736 7.21981C 26.1472 7.23587 26.1103 7.25802 26.0608 7.28725C 25.9592 7.34718 25.8187 7.42838 25.6421 7.5254C 25.2835 7.72251 24.8181 7.96306 24.3134 8.17544L 24.8967 9.55741C 25.4539 9.32164 25.9885 9.04651 26.3645 8.83999C 26.5551 8.73519 26.7155 8.64258 26.823 8.57916C 26.878 8.54671 26.9227 8.5198 26.9517 8.50221C 26.9668 8.49307 26.9792 8.48549 26.9869 8.48075C 26.991 8.47821 26.9946 8.47602 26.9967 8.47473C 26.9978 8.474 26.9989 8.47332 26.9995 8.47295C 26.9999 8.47273 27.0003 8.47249 27.0005 8.47238C 27.0006 8.4723 27.0007 8.47221 27.0008 8.47217C 27.0008 8.47215 27.0009 8.47211 27.0009 8.47209C 27.001 8.47206 27.001 8.47202 26.6051 7.83508ZM 24.3134 8.17544C 23.8364 8.37722 23.3935 8.53162 22.9856 8.59465L 23.2245 10.0755C 23.7577 9.98674 24.3718 9.77843 24.8967 9.55741L 24.3134 8.17544ZM 20.5051 5.88508L 17.5051 9.88508L 18.7051 10.7851L 21.7051 6.78508L 20.5051 5.88508ZM 10.3353 10.1641C 10.1948 9.56545 9.95881 8.24276 9.937 6.98041C 9.92432 6.35237 9.95724 5.8182 10.0807 5.37833C 10.1998 4.94071 10.3429 4.8477 10.3836 4.83143L 9.82651 3.43872C 9.1215 3.72072 8.79311 4.39717 8.63332 4.98461C 8.47795 5.5698 8.42476 6.31632 8.43727 7.00902C 8.46587 8.38817 8.72551 9.86721 8.87481 10.5061L 10.3353 10.1641ZM 8.10505 16.5851L 11.6051 16.5851L 11.6051 15.0851L 8.10505 15.0851L 8.10505 16.5851ZM 12.3551 15.8351L 12.3551 14.8351L 10.8551 14.8351L 10.8551 15.8351L 12.3551 15.8351ZM 5.86923 2.68996C 4.95053 7.40652 5.60964 11.7289 7.4115 16.1205L 8.7986 15.5496C 7.05466 11.3265 6.4502 7.43804 7.34088 2.9802L 5.86923 2.68996Z"/>
</defs>
</svg>
